<svg version="1.1" xmlns="http://www.w3.org/2000/svg" viewBox="0 0 2545.875 3565.151557233311" width="5091.75" height="7130.303114466622">
  <!-- svg-source:excalidraw -->
  
  <defs>
    <style class="style-fonts">
      @font-face {
        font-family: "Virgil";
        src: url("https://unpkg.com/@excalidraw/excalidraw@undefined/dist/excalidraw-assets/Virgil.woff2");
      }
      @font-face {
        font-family: "Cascadia";
        src: url("https://unpkg.com/@excalidraw/excalidraw@undefined/dist/excalidraw-assets/Cascadia.woff2");
      }
      @font-face {
        font-family: "Assistant";
        src: url("https://unpkg.com/@excalidraw/excalidraw@undefined/dist/excalidraw-assets/Assistant-Regular.woff2");
      }
    </style>
    
  </defs>
  <rect x="0" y="0" width="2545.875" height="3565.151557233311" fill="#ffffff"></rect><g stroke-linecap="round" transform="translate(1415.974609375 10) rotate(0 65.6484375 26.25)"><path d="M-0.01 0.87 L130.75 -1.92 L131.21 52.39 L0.29 50.94" stroke="none" stroke-width="0" fill="#81C784"></path><path d="M0 0 C44.94 0.49, 89.78 -2.31, 131.3 0 M0 0 C48.12 0.31, 95.01 1.06, 131.3 0 M131.3 0 C131.91 13.07, 130.37 21.97, 131.3 52.5 M131.3 0 C130.41 10.43, 130.62 21.41, 131.3 52.5 M131.3 52.5 C94.41 53.71, 58.08 54.69, 0 52.5 M131.3 52.5 C90.09 52.73, 49.17 52.45, 0 52.5 M0 52.5 C-0.54 36.18, 1.33 17.83, 0 0 M0 52.5 C0.06 39.42, 0.2 25, 0 0" stroke="#1e1e1e" stroke-width="2" fill="none"></path></g><g stroke-linecap="round" transform="translate(1370.947265625 112.5) rotate(0 110.67578125 26.25)"><path d="M0.87 -0.55 L219.43 -0.09 L221.24 52.79 L-1.56 52.95" stroke="none" stroke-width="0" fill="#FFB74D"></path><path d="M0 0 C65.63 0.21, 127.52 0.71, 221.35 0 M0 0 C54.9 -1.14, 110.37 -1.58, 221.35 0 M221.35 0 C222.61 13.42, 220.12 26.42, 221.35 52.5 M221.35 0 C221.21 15, 221.59 31.07, 221.35 52.5 M221.35 52.5 C165.9 50.15, 111.16 51.72, 0 52.5 M221.35 52.5 C144.11 52.43, 66.1 52.69, 0 52.5 M0 52.5 C1.77 36.64, 1.32 17.05, 0 0 M0 52.5 C0.43 36.93, -0.23 20.96, 0 0" stroke="#1e1e1e" stroke-width="2" fill="none"></path></g><g stroke-linecap="round" transform="translate(1413.087890625 215) rotate(0 68.53515625 26.25)"><path d="M-0.55 -1.92 L136.99 -0.11 L137.36 50.94 L0.45 54.05" stroke="none" stroke-width="0" fill="#FFF176"></path><path d="M0 0 C52.58 -2.32, 105.06 -2.09, 137.07 0 M0 0 C38.51 0.71, 76.84 -0.43, 137.07 0 M137.07 0 C136.5 10.73, 135.31 23.04, 137.07 52.5 M137.07 0 C135.94 16.17, 136.34 31.41, 137.07 52.5 M137.07 52.5 C83.23 53.72, 32.77 53.63, 0 52.5 M137.07 52.5 C99.83 53.62, 62.77 53.62, 0 52.5 M0 52.5 C1.59 39.76, -0.66 24.77, 0 0 M0 52.5 C0.17 34.39, -0.03 16.69, 0 0" stroke="#1e1e1e" stroke-width="2" fill="none"></path></g><g stroke-linecap="round" transform="translate(131.001953125 317.5) rotate(0 91.1875 26.25)"><path d="M-1.92 -0.09 L182.27 0.29 L180.82 52.95 L1.55 50.92" stroke="none" stroke-width="0" fill="#E57373"></path><path d="M0 0 C57.05 0.64, 115.61 -0.96, 182.38 0 M0 0 C63.77 -0.23, 125.56 -0.21, 182.38 0 M182.38 0 C182.01 15.82, 182.78 35.64, 182.38 52.5 M182.38 0 C182.52 10.87, 181.8 23.11, 182.38 52.5 M182.38 52.5 C138.41 51.35, 93.21 50.53, 0 52.5 M182.38 52.5 C129.53 53.12, 76.38 52.35, 0 52.5 M0 52.5 C0.72 36.98, -0.41 23.89, 0 0 M0 52.5 C-0.34 36.44, 0.08 20.11, 0 0" stroke="#1e1e1e" stroke-width="2" fill="none"></path></g><g stroke-linecap="round" transform="translate(154.744140625 420) rotate(0 67.4453125 26.25)"><path d="M-0.09 -0.11 L135.18 -1.56 L135.34 54.05 L-1.58 51.05" stroke="none" stroke-width="0" fill="#64B5F6"></path><path d="M0 0 C52.03 -0.19, 101.2 1.76, 134.89 0 M0 0 C40.91 -1.44, 82.68 -0.75, 134.89 0 M134.89 0 C132.72 20.12, 134.76 38.56, 134.89 52.5 M134.89 0 C134.27 14.43, 135.35 29.31, 134.89 52.5 M134.89 52.5 C93.71 54.28, 51.45 53.09, 0 52.5 M134.89 52.5 C86.8 53.22, 37.53 52.73, 0 52.5 M0 52.5 C-1.15 32.61, 0.51 12.82, 0 0 M0 52.5 C-0.11 33.68, -0.38 13.03, 0 0" stroke="#1e1e1e" stroke-width="2" fill="none"></path></g><g stroke-linecap="round" transform="translate(85.841796875 522.5) rotate(0 136.34765625 136.34765625)"><path d="M136.89 0.29 L271.14 137.45 L138.55 271.11 L-1.45 138.56" stroke="none" stroke-width="0" fill="#7986CB" fill-rule="evenodd"></path><path d="M137 0 C180.42 44.59, 227.71 90.89, 272.7 137 M137 0 C174.13 36.94, 211.08 75.2, 272.7 137 M272.7 137 C236.63 171.23, 199.42 206.33, 137 272.7 M272.7 137 C240.85 169.1, 209.16 200.02, 137 272.7 M137 272.7 C106.8 242.15, 75.14 213.72, 0 137 M137 272.7 C94.23 230.64, 51.07 189.54, 0 137 M0 137 C50.53 87.13, 101.94 36.26, 137 0 M0 137 C44.24 92.91, 86.66 49.33, 137 0" stroke="#1e1e1e" stroke-width="2" fill="none"></path></g><g stroke-linecap="round" transform="translate(10 882.6953125) rotate(0 95.125 26.25)"><path d="M0.29 -1.56 L190.7 1.55 L188.67 51.05 L1.56 52.59" stroke="none" stroke-width="0" fill="#BA68C8"></path><path d="M0 0 C44.61 1.9, 90.07 0.34, 190.25 0 M0 0 C72.34 0.95, 147.12 0.18, 190.25 0 M190.25 0 C189.81 11.88, 189.42 25.93, 190.25 52.5 M190.25 0 C190.92 16.4, 190.18 33.07, 190.25 52.5 M190.25 52.5 C121.92 53.3, 55.88 53.7, 0 52.5 M190.25 52.5 C126.96 52.89, 65.18 53.82, 0 52.5 M0 52.5 C1.1 33.9, 1.53 15.46, 0 0 M0 52.5 C-0.27 35.75, -0.04 20.87, 0 0" stroke="#1e1e1e" stroke-width="2" fill="none"></path></g><g stroke-linecap="round" transform="translate(250.25 882.6953125) rotate(0 89.00390625 26.25)"><path d="M-1.56 0.45 L179.56 -1.58 L176.56 54.06 L0.09 52.27" stroke="none" stroke-width="0" fill="#81C784"></path><path d="M0 0 C65.53 0.49, 128.6 1.99, 178.01 0 M0 0 C39 2.27, 76.84 1.03, 178.01 0 M178.01 0 C176.25 10.28, 176.67 21.63, 178.01 52.5 M178.01 0 C177.22 14.4, 176.97 29.22, 178.01 52.5 M178.01 52.5 C122.08 53.2, 66.73 52.63, 0 52.5 M178.01 52.5 C117.13 52.65, 57.38 52.43, 0 52.5 M0 52.5 C0.12 40.08, 0.39 25.01, 0 0 M0 52.5 C-1.19 36.73, -0.28 21.18, 0 0" stroke="#1e1e1e" stroke-width="2" fill="none"></path></g><g stroke-linecap="round" transform="translate(184.5078125 985.1953125) rotate(0 154.74609375 154.74609375)"><path d="M155.45 1.55 L307.91 153.55 L156.56 309.59 L-0.23 154.95" stroke="none" stroke-width="0" fill="#FFB74D" fill-rule="evenodd"></path><path d="M155 0 C193.2 37.21, 232.76 74.72, 309.49 155 M155 0 C196.41 41.04, 237.09 82.42, 309.49 155 M309.49 155 C263.16 198.77, 217.71 245.57, 155 309.49 M309.49 155 C271.86 192.41, 233.49 231.99, 155 309.49 M155 309.49 C101.95 255.3, 47 201.54, 0 155 M155 309.49 C104.96 258.84, 53.56 206.82, 0 155 M0 155 C47.11 108.71, 92.52 61.8, 155 0 M0 155 C53.56 103.02, 106.94 49.17, 155 0" stroke="#1e1e1e" stroke-width="2" fill="none"></path></g><g stroke-linecap="round" transform="translate(310.470703125 1382.1875) rotate(0 123.65625 26.25)"><path d="M1.55 -1.58 L245.87 1.56 L247.41 52.27 L-0.05 53.13" stroke="none" stroke-width="0" fill="#FFF176"></path><path d="M0 0 C69.53 1.19, 138.77 -0.68, 247.31 0 M0 0 C54.02 -2.04, 107.87 -1.72, 247.31 0 M247.31 0 C245.52 16.4, 246.31 30.92, 247.31 52.5 M247.31 0 C246.26 20.59, 247.17 40.56, 247.31 52.5 M247.31 52.5 C180.1 54.21, 113.19 54.21, 0 52.5 M247.31 52.5 C182.59 54.57, 116.33 54.11, 0 52.5 M0 52.5 C0.37 34.39, -0.04 17.13, 0 0 M0 52.5 C0.45 38.33, -0.27 24.09, 0 0" stroke="#1e1e1e" stroke-width="2" fill="none"></path></g><g stroke-linecap="round" transform="translate(607.783203125 1382.1875) rotate(0 110.90625 26.25)"><path d="M-1.58 -1.45 L223.37 0.09 L221.58 52.45 L0.63 51.35" stroke="none" stroke-width="0" fill="#E57373"></path><path d="M0 0 C78 -0.81, 152.56 -0.76, 221.81 0 M0 0 C74.77 -0.11, 150.23 0.77, 221.81 0 M221.81 0 C222.18 10.6, 220.75 23.92, 221.81 52.5 M221.81 0 C222.41 13.11, 222.36 25.69, 221.81 52.5 M221.81 52.5 C157.7 53.43, 93.05 52.1, 0 52.5 M221.81 52.5 C159.96 53.6, 97.14 54.32, 0 52.5 M0 52.5 C-0.34 36.43, 0.52 19.84, 0 0 M0 52.5 C0.17 41.02, 0.25 31.87, 0 0" stroke="#1e1e1e" stroke-width="2" fill="none"></path></g><g stroke-linecap="round" transform="translate(601.677734375 1484.6875) rotate(0 117.01171875 117.01171875)"><path d="M116.55 1.56 L234.12 117.77 L117.95 234.66 L-1.15 116.66" stroke="none" stroke-width="0" fill="#64B5F6" fill-rule="evenodd"></path><path d="M118 0 C151.86 34.94, 187.82 72.82, 234.02 118 M118 0 C161.11 45.75, 206.67 90.19, 234.02 118 M234.02 118 C199.74 150.25, 168.94 183.15, 118 234.02 M234.02 118 C197.61 154.81, 161.55 189.86, 118 234.02 M118 234.02 C76.26 193.28, 32.3 150.57, 0 118 M118 234.02 C72.03 190.72, 28.13 146.8, 0 118 M0 118 C43.03 75.59, 85.77 29.52, 118 0 M0 118 C34.18 83.16, 70.64 47.24, 118 0" stroke="#1e1e1e" stroke-width="2" fill="none"></path></g><g stroke-linecap="round" transform="translate(621.845703125 1806.2109375) rotate(0 96.84375 26.25)"><path d="M1.56 0.09 L193.45 -0.05 L194.32 51.35 L-1.34 50.76" stroke="none" stroke-width="0" fill="#7986CB"></path><path d="M0 0 C51.18 0, 104.31 3.29, 193.69 0 M0 0 C50.64 1.94, 100.43 1.74, 193.69 0 M193.69 0 C192.83 13.88, 192.75 24.64, 193.69 52.5 M193.69 0 C194.5 11.4, 193.9 23.94, 193.69 52.5 M193.69 52.5 C133.98 52.58, 72.68 54.87, 0 52.5 M193.69 52.5 C121.17 52.21, 48.7 52.43, 0 52.5 M0 52.5 C0.86 35.16, -1.93 18.83, 0 0 M0 52.5 C0.15 37.81, -0.87 20.85, 0 0" stroke="#1e1e1e" stroke-width="2" fill="none"></path></g><g stroke-linecap="round" transform="translate(705.5703125 2020.24609375) rotate(0 89.125 26.25)"><path d="M0.09 -0.23 L178.2 0.63 L177.1 51.16 L-1.74 50.95" stroke="none" stroke-width="0" fill="#BA68C8"></path><path d="M0 0 C66.92 1.3, 138.73 -0.24, 178.25 0 M0 0 C46.33 -0.85, 92.42 -0.64, 178.25 0 M178.25 0 C179.74 15.87, 178.25 32.29, 178.25 52.5 M178.25 0 C178.04 18.62, 178.91 37.52, 178.25 52.5 M178.25 52.5 C118.57 52.66, 61.91 54.53, 0 52.5 M178.25 52.5 C115.14 52.57, 51.8 52.7, 0 52.5 M0 52.5 C-0.54 34.79, -0.08 20.82, 0 0 M0 52.5 C1.19 35.2, -0.31 20.27, 0 0" stroke="#1e1e1e" stroke-width="2" fill="none"></path></g><g stroke-linecap="round" transform="translate(961.515625 1806.2109375) rotate(0 130.28125 26.25)"><path d="M-0.23 -0.05 L261.2 -1.15 L259.23 50.76 L-1.55 52.74" stroke="none" stroke-width="0" fill="#81C784"></path><path d="M0 0 C57.14 3.01, 112.43 1.03, 260.56 0 M0 0 C51.87 -0.2, 104.61 0.1, 260.56 0 M260.56 0 C259.25 14.47, 258.75 29.78, 260.56 52.5 M260.56 0 C260.75 17.04, 260.95 33.19, 260.56 52.5 M260.56 52.5 C171.43 53.02, 84.09 52.66, 0 52.5 M260.56 52.5 C192.36 53.97, 124.22 53.45, 0 52.5 M0 52.5 C-2.15 36.68, -0.34 21.33, 0 0 M0 52.5 C-0.91 40.12, 0.66 29.22, 0 0" stroke="#1e1e1e" stroke-width="2" fill="none"></path></g><g stroke-linecap="round" transform="translate(954.01171875 1908.7109375) rotate(0 137.78515625 137.78515625)"><path d="M137.95 0.63 L274.42 136.66 L136.26 274.02 L0.24 137.85" stroke="none" stroke-width="0" fill="#FFB74D" fill-rule="evenodd"></path><path d="M138 0 C175.76 36, 210.46 72.11, 275.57 138 M138 0 C178.95 41.73, 220.39 83.31, 275.57 138 M275.57 138 C242.29 170.26, 208.73 206.62, 138 275.57 M275.57 138 C227.46 186.32, 178.84 234.95, 138 275.57 M138 275.57 C94.48 231.35, 48.44 183.65, 0 138 M138 275.57 C96.59 234.53, 54.48 193, 0 138 M0 138 C47.68 91.83, 95.44 42.99, 138 0 M0 138 C42.7 95.38, 87.96 49.99, 138 0" stroke="#1e1e1e" stroke-width="2" fill="none"></path></g><g stroke-linecap="round" transform="translate(1054.533203125 2271.78125) rotate(0 123.65625 26.25)"><path d="M0.63 -1.15 L245.98 -1.74 L245.76 52.74 L-0.15 53.71" stroke="none" stroke-width="0" fill="#FFF176"></path><path d="M0 0 C53.7 -2.37, 107.06 -1.73, 247.31 0 M0 0 C74.58 0.5, 150.03 -0.08, 247.31 0 M247.31 0 C245.48 21.15, 247.3 41.08, 247.31 52.5 M247.31 0 C247.38 14.61, 247.68 28.92, 247.31 52.5 M247.31 52.5 C183.2 55.03, 116.02 54.11, 0 52.5 M247.31 52.5 C162.11 53.86, 76.58 54.21, 0 52.5 M0 52.5 C0.4 38.47, -1.05 24.32, 0 0 M0 52.5 C1.2 32.72, 0.3 12.82, 0 0" stroke="#1e1e1e" stroke-width="2" fill="none"></path></g><g stroke-linecap="round" transform="translate(1351.845703125 2271.78125) rotate(0 76.77734375 26.25)"><path d="M-1.15 -1.34 L151.82 -1.55 L153.8 52.35 L1.21 53.69" stroke="none" stroke-width="0" fill="#E57373"></path><path d="M0 0 C51.2 -1.37, 103.98 0.67, 153.55 0 M0 0 C32.82 0.75, 64.71 1.84, 153.55 0 M153.55 0 C154.72 13.25, 154.62 25.41, 153.55 52.5 M153.55 0 C154.17 15.71, 154.17 30.24, 153.55 52.5 M153.55 52.5 C111.53 52.88, 67.25 54.55, 0 52.5 M153.55 52.5 C106.59 52.8, 60.05 52.53, 0 52.5 M0 52.5 C0.31 40.24, 0.47 32.65, 0 0 M0 52.5 C0.43 40.79, 0.35 29.62, 0 0" stroke="#1e1e1e" stroke-width="2" fill="none"></path></g><g stroke-linecap="round" transform="translate(1319.927734375 2374.28125) rotate(0 108.6953125 108.6953125)"><path d="M107.66 -1.74 L215.84 109.24 L108.85 218.6 L1.19 108.8" stroke="none" stroke-width="0" fill="#64B5F6" fill-rule="evenodd"></path><path d="M109 0 C148.23 42.25, 191.88 82.38, 217.39 109 M109 0 C138.8 30.24, 170.69 61.18, 217.39 109 M217.39 109 C183.51 143.94, 149.39 176.04, 109 217.39 M217.39 109 C178.95 148.61, 139.21 187.09, 109 217.39 M109 217.39 C66.12 176.93, 26.47 135.96, 0 109 M109 217.39 C68.81 178.08, 28.57 136.94, 0 109 M0 109 C30.74 77.05, 66.08 42.79, 109 0 M0 109 C23.86 84.1, 49.11 58.73, 109 0" stroke="#1e1e1e" stroke-width="2" fill="none"></path></g><g stroke-linecap="round" transform="translate(1376.814453125 2679.171875) rotate(0 123.65625 26.25)"><path d="M-1.74 -1.55 L247.55 -0.15 L248.53 53.69 L-0.2 52.95" stroke="none" stroke-width="0" fill="#7986CB"></path><path d="M0 0 C64.65 2.06, 127.92 1.74, 247.31 0 M0 0 C57.29 1.22, 114.96 0.61, 247.31 0 M247.31 0 C248.63 11.12, 247.44 24.54, 247.31 52.5 M247.31 0 C247.78 15.99, 247.28 33.49, 247.31 52.5 M247.31 52.5 C154.72 52.47, 62.2 52.82, 0 52.5 M247.31 52.5 C168.57 52.27, 88.32 52.46, 0 52.5 M0 52.5 C0.37 38.59, -1.66 20.12, 0 0 M0 52.5 C-0.05 32.97, -0.6 12.13, 0 0" stroke="#1e1e1e" stroke-width="2" fill="none"></path></g><g stroke-linecap="round" transform="translate(1674.126953125 2679.171875) rotate(0 46.40625 26.25)"><path d="M-1.55 0.24 L92.66 1.21 L94 52.3 L0.45 51.12" stroke="none" stroke-width="0" fill="#BA68C8"></path><path d="M0 0 C24.18 -1.74, 47.89 -1.32, 92.81 0 M0 0 C30.73 -0.07, 59.91 -0.32, 92.81 0 M92.81 0 C92.33 18.53, 94.07 37.64, 92.81 52.5 M92.81 0 C92.67 17.18, 93.82 35.47, 92.81 52.5 M92.81 52.5 C60.62 52.62, 27.96 52.9, 0 52.5 M92.81 52.5 C64.63 51.94, 36.95 52.85, 0 52.5 M0 52.5 C1.96 34.41, -1.04 21.05, 0 0 M0 52.5 C0.38 35.93, -0.61 19.64, 0 0" stroke="#1e1e1e" stroke-width="2" fill="none"></path></g><g stroke-linecap="round" transform="translate(1597.365234375 2781.671875) rotate(0 123.16796875 123.16796875)"><path d="M124.24 -0.15 L247.55 125.19 L123.8 246.79 L-1.38 122.45" stroke="none" stroke-width="0" fill="#81C784" fill-rule="evenodd"></path><path d="M124 0 C146.91 24.65, 172.01 50.44, 246.34 124 M124 0 C156.25 32.92, 189.39 67.25, 246.34 124 M246.34 124 C208.48 163.17, 170.56 200.91, 124 246.34 M246.34 124 C204.81 166.06, 164.04 207.54, 124 246.34 M124 246.34 C91.63 216.19, 59.43 182.82, 0 124 M124 246.34 C85.35 209.3, 49.11 172.83, 0 124 M0 124 C25.69 94.05, 56.37 68.04, 124 0 M0 124 C35.21 87.18, 70.68 51.32, 124 0" stroke="#1e1e1e" stroke-width="2" fill="none"></path></g><g stroke-linecap="round" transform="translate(1669.55859375 3115.5078125) rotate(0 130.05859375 26.25)"><path d="M-0.15 1.21 L261.31 -0.2 L260.57 51.12 L-1.55 52.64" stroke="none" stroke-width="0" fill="#FFB74D"></path><path d="M0 0 C77.38 0.76, 155.63 1.39, 260.12 0 M0 0 C65.37 0.48, 131.08 1.2, 260.12 0 M260.12 0 C261.16 18.67, 260.59 37.7, 260.12 52.5 M260.12 0 C260.72 18.09, 260.49 34.31, 260.12 52.5 M260.12 52.5 C183.05 52.94, 103.87 52.62, 0 52.5 M260.12 52.5 C170.76 50.46, 81.59 49.88, 0 52.5 M0 52.5 C-1.85 37.14, -0.31 18.42, 0 0 M0 52.5 C-0.83 36.01, -0.94 21.38, 0 0" stroke="#1e1e1e" stroke-width="2" fill="none"></path></g><g stroke-linecap="round" transform="translate(1951.625 3358.0078125) rotate(0 123.65625 26.25)"><path d="M1.21 1.19 L247.11 0.45 L245.94 50.95 L0.14 52.53" stroke="none" stroke-width="0" fill="#FFF176"></path><path d="M0 0 C74.03 0.69, 149.81 -0.48, 247.31 0 M0 0 C93.7 0.31, 188.78 0.27, 247.31 0 M247.31 0 C247.5 14.92, 248.09 29.22, 247.31 52.5 M247.31 0 C247.96 14.43, 246.83 27.74, 247.31 52.5 M247.31 52.5 C162.27 53.87, 76.58 54.57, 0 52.5 M247.31 52.5 C179.83 52.53, 111.8 52.6, 0 52.5 M0 52.5 C1.98 32.77, 0.18 12.79, 0 0 M0 52.5 C-0.57 34.31, 0.42 17.59, 0 0" stroke="#1e1e1e" stroke-width="2" fill="none"></path></g><g stroke-linecap="round" transform="translate(2248.9375 3358.0078125) rotate(0 143.46875 26.25)"><path d="M1.19 -0.2 L287.39 -1.38 L285.39 52.64 L0.03 52.91" stroke="none" stroke-width="0" fill="#E57373"></path><path d="M0 0 C61.25 1.04, 121.09 2.68, 286.94 0 M0 0 C71.37 1.78, 142.28 1.47, 286.94 0 M286.94 0 C287.87 16.12, 287.86 29.88, 286.94 52.5 M286.94 0 C287.92 14.37, 287.36 29.96, 286.94 52.5 M286.94 52.5 C199.18 52.92, 112.06 52.52, 0 52.5 M286.94 52.5 C228.55 51.79, 170.12 52.97, 0 52.5 M0 52.5 C0.47 40.67, 0.33 29.94, 0 0 M0 52.5 C-0.43 39.9, 0.27 27.66, 0 0" stroke="#1e1e1e" stroke-width="2" fill="none"></path></g><g stroke-linecap="round" transform="translate(1979.67578125 3115.5078125) rotate(0 52.0703125 26.25)"><path d="M-0.2 0.45 L102.77 -1.55 L104.28 52.53 L0.41 53.75" stroke="none" stroke-width="0" fill="#64B5F6"></path><path d="M0 0 C29.05 -1.21, 60.82 -1.29, 104.14 0 M0 0 C32.13 -0.07, 63.72 -0.67, 104.14 0 M104.14 0 C105.02 19.48, 103.48 37.37, 104.14 52.5 M104.14 0 C104.15 19.9, 104.98 39.86, 104.14 52.5 M104.14 52.5 C65.94 53.38, 27.21 50.58, 0 52.5 M104.14 52.5 C72.56 52.87, 43.32 51.86, 0 52.5 M0 52.5 C-0.64 40.49, 0.22 27.44, 0 0 M0 52.5 C0.58 40.18, 1.06 28.61, 0 0" stroke="#1e1e1e" stroke-width="2" fill="none"></path></g><g stroke-linecap="round" transform="translate(2009.5 3218.0078125) rotate(0 22.24609375 26.25)"><path d="M0.45 -1.38 L42.95 0.14 L44.53 52.91 L1.25 53.46" stroke="none" stroke-width="0" fill="#7986CB"></path><path d="M0 0 C9.4 1.75, 19.7 0.27, 44.49 0 M0 0 C10.41 -0.33, 19.7 0.54, 44.49 0 M44.49 0 C45.26 15.63, 44.27 34.28, 44.49 52.5 M44.49 0 C44.79 20.11, 44.85 39.98, 44.49 52.5 M44.49 52.5 C31.13 51.95, 14.11 52.41, 0 52.5 M44.49 52.5 C31.61 52.93, 17.49 51.43, 0 52.5 M0 52.5 C-0.07 33.28, -1.18 11.46, 0 0 M0 52.5 C0.33 41.92, 1 30.02, 0 0" stroke="#1e1e1e" stroke-width="2" fill="none"></path></g><g stroke-linecap="round"><g transform="translate(1481.623 63) rotate(0 0 24.5)"><path d="M-0.59 0.98 C-0.74 9.21, -0.58 40.97, -0.63 49.09 M1.31 0.44 C1.53 8.92, 1.72 42.8, 1.75 50.67" stroke="black" stroke-width="2" fill="none"></path></g><g transform="translate(1481.623 63) rotate(0 0 24.5)"><path d="M-6.75 27.69 C-2.45 34.08, -1.19 40.99, 1.75 50.67 M-6.75 27.69 C-3.97 35.75, -0.07 44.13, 1.75 50.67" stroke="black" stroke-width="2" fill="none"></path></g><g transform="translate(1481.623 63) rotate(0 0 24.5)"><path d="M10.01 27.6 C8.91 33.94, 4.76 40.88, 1.75 50.67 M10.01 27.6 C6.82 35.78, 4.75 44.2, 1.75 50.67" stroke="black" stroke-width="2" fill="none"></path></g></g><mask></mask><g stroke-linecap="round"><g transform="translate(1481.623 165.5) rotate(0 0 24.5)"><path d="M0.98 -0.63 C1.05 7.48, 0.14 39.77, 0.09 48.07 M0.03 1.65 C-0.02 9.93, -0.85 40.96, -0.82 49.12" stroke="black" stroke-width="2" fill="none"></path></g><g transform="translate(1481.623 165.5) rotate(0 0 24.5)"><path d="M-8.9 25.99 C-7.86 32.38, -6.15 39.67, -0.82 49.12 M-8.9 25.99 C-6.34 33.85, -3.6 40.81, -0.82 49.12" stroke="black" stroke-width="2" fill="none"></path></g><g transform="translate(1481.623 165.5) rotate(0 0 24.5)"><path d="M7.86 26.2 C4.32 32.67, 1.46 39.91, -0.82 49.12 M7.86 26.2 C5.17 33.95, 2.66 40.84, -0.82 49.12" stroke="black" stroke-width="2" fill="none"></path></g></g><mask></mask><g stroke-linecap="round"><g transform="translate(1413.088 244.539) rotate(0 -595.4495 36.230500000000006)"><path d="M-0.63 0.09 C-199.17 8.03, -993.48 36.47, -1191.83 48.64 C-1390.18 60.8, -1190.84 69.12, -1190.74 73.08 M1.24 -0.91 C-196.88 6.6, -990.83 34.87, -1189.61 46.87 C-1388.38 58.86, -1191.17 66.63, -1191.42 71.06" stroke="black" stroke-width="2" fill="none"></path></g><g transform="translate(1413.088 244.539) rotate(0 -595.4495 36.230500000000006)"><path d="M-1203.38 73.7 C-1200.31 72.15, -1196.71 72.6, -1191.42 71.06 M-1203.38 73.7 C-1198.81 72.85, -1194.78 72.1, -1191.42 71.06" stroke="black" stroke-width="2" fill="none"></path></g><g transform="translate(1413.088 244.539) rotate(0 -595.4495 36.230500000000006)"><path d="M-1202.28 65.39 C-1199.42 65.92, -1196.09 68.46, -1191.42 71.06 M-1202.28 65.39 C-1198.12 67.46, -1194.48 69.63, -1191.42 71.06" stroke="black" stroke-width="2" fill="none"></path></g></g><mask></mask><g stroke-linecap="round"><g transform="translate(222.189 370.5) rotate(0 0 24.5)"><path d="M0.09 -0.93 C0.04 7.37, 0.59 40.89, 0.68 49.16 M-1.33 1.19 C-1.56 9.77, -0.17 42.68, 0.08 50.78" stroke="black" stroke-width="2" fill="none"></path></g><g transform="translate(222.189 370.5) rotate(0 0 24.5)"><path d="M-9.13 28.07 C-7.29 37.85, -1.96 46.41, 0.08 50.78 M-9.13 28.07 C-6.52 34.51, -3.72 40.7, 0.08 50.78" stroke="black" stroke-width="2" fill="none"></path></g><g transform="translate(222.189 370.5) rotate(0 0 24.5)"><path d="M7.62 27.47 C3.07 37.49, 2.01 46.28, 0.08 50.78 M7.62 27.47 C5.66 34.17, 3.9 40.52, 0.08 50.78" stroke="black" stroke-width="2" fill="none"></path></g></g><mask></mask><g stroke-linecap="round"><g transform="translate(222.689 473) rotate(0 -0.25 24.75)"><path d="M-0.93 0.68 C-0.88 9.01, -0.36 42, -0.34 50.12 M0.78 -0.02 C0.74 7.96, -0.78 39.87, -1.21 48.32" stroke="black" stroke-width="2" fill="none"></path></g><g transform="translate(222.689 473) rotate(0 -0.25 24.75)"><path d="M-8.54 24.68 C-5.59 30.84, -3.87 35.87, -1.21 48.32 M-8.54 24.68 C-5.96 31.97, -3.82 38.09, -1.21 48.32" stroke="black" stroke-width="2" fill="none"></path></g><g transform="translate(222.689 473) rotate(0 -0.25 24.75)"><path d="M8.37 25.49 C7.14 31.32, 4.68 36.15, -1.21 48.32 M8.37 25.49 C6.02 32.56, 3.23 38.45, -1.21 48.32" stroke="black" stroke-width="2" fill="none"></path></g></g><mask></mask><g mask="url(#mask-OK2ex4MXrJUqjqDqx_qpi)" stroke-linecap="round"><g transform="translate(168.976 742.482) rotate(0 -31.9255 69.85650000000004)"><path d="M0.68 0.16 C-9.88 16.34, -52.46 72.75, -63.24 96.13 C-74.01 119.51, -63.87 133.1, -63.95 140.43 M-0.43 -0.8 C-11.1 15.63, -53.14 74.29, -63.86 97.5 C-74.58 120.71, -64.85 131.15, -64.77 138.46" stroke="black" stroke-width="2" fill="none"></path></g><g transform="translate(168.976 742.482) rotate(0 -31.9255 69.85650000000004)"><path d="M-76.75 120.45 C-72.95 126.95, -70.08 131.28, -64.77 138.46 M-76.75 120.45 C-72.01 127.2, -68.48 133.18, -64.77 138.46" stroke="black" stroke-width="2" fill="none"></path></g><g transform="translate(168.976 742.482) rotate(0 -31.9255 69.85650000000004)"><path d="M-62.37 116.97 C-63.01 124.61, -64.57 130.02, -64.77 138.46 M-62.37 116.97 C-62.8 125.01, -64.43 132.24, -64.77 138.46" stroke="black" stroke-width="2" fill="none"></path></g></g><mask id="mask-OK2ex4MXrJUqjqDqx_qpi"><rect x="0" y="0" fill="#fff" width="332.827" height="983.195"></rect><rect x="90.5693359375" y="826.4450000000002" fill="#000" width="29.111328125" height="25" opacity="1"></rect></mask><g mask="url(#mask-39nhg1Yq-cSEtZ771o2oK)" stroke-linecap="round"><g transform="translate(276.402 742.482) rotate(0 31.426000000000016 69.85650000000004)"><path d="M0.16 0.62 C10.73 16.56, 51.95 73.15, 62.52 96.36 C73.09 119.57, 63.45 132.54, 63.57 139.85 M-1.22 -0.11 C9.25 15.98, 50.67 74.29, 61.4 97.84 C72.13 121.4, 62.8 134.56, 63.18 141.24" stroke="black" stroke-width="2" fill="none"></path></g><g transform="translate(276.402 742.482) rotate(0 31.426000000000016 69.85650000000004)"><path d="M59.66 119.9 C61.59 124.09, 61.17 130.58, 63.18 141.24 M59.66 119.9 C61.13 126.17, 61.73 133.97, 63.18 141.24" stroke="black" stroke-width="2" fill="none"></path></g><g transform="translate(276.402 742.482) rotate(0 31.426000000000016 69.85650000000004)"><path d="M74.2 122.63 C72.88 126.24, 69.23 132.11, 63.18 141.24 M74.2 122.63 C71.13 128.11, 67.2 135.06, 63.18 141.24" stroke="black" stroke-width="2" fill="none"></path></g></g><mask id="mask-39nhg1Yq-cSEtZ771o2oK"><rect x="0" y="0" fill="#fff" width="439.254" height="983.195"></rect><rect x="327.03232031249996" y="826.4450000000002" fill="#000" width="24.443359375" height="25" opacity="1"></rect></mask><g stroke-linecap="round"><g transform="translate(339.754 935.695) rotate(0 -0.25 24.75)"><path d="M0.62 -0.33 C0.4 8.01, -0.44 41.85, -0.6 50.21 M-0.52 -1.55 C-0.96 6.44, -1.52 40.26, -1.6 48.47" stroke="black" stroke-width="2" fill="none"></path></g><g transform="translate(339.754 935.695) rotate(0 -0.25 24.75)"><path d="M-9.73 25.09 C-7.35 33.2, -2.72 41.93, -1.6 48.47 M-9.73 25.09 C-7.3 32.61, -3.47 41.27, -1.6 48.47" stroke="black" stroke-width="2" fill="none"></path></g><g transform="translate(339.754 935.695) rotate(0 -0.25 24.75)"><path d="M7.2 25.34 C3.55 33.45, 2.15 42.09, -1.6 48.47 M7.2 25.34 C4.03 32.82, 2.26 41.41, -1.6 48.47" stroke="black" stroke-width="2" fill="none"></path></g></g><mask></mask><g mask="url(#mask-EtDbRr0g5fI1AXvvcOoVK)" stroke-linecap="round"><g transform="translate(340.254 1295.688) rotate(0 28.397999999999996 43)"><path d="M-0.33 -0.1 C-0.4 6.94, -10.03 28.45, -0.29 42.89 C9.46 57.32, 48.42 79.38, 58.17 86.49 M1.7 -1.2 C1.51 6.01, -10.17 30.23, -0.86 44.5 C8.46 58.76, 47.68 77.41, 57.59 84.41" stroke="black" stroke-width="2" fill="none"></path></g><g transform="translate(340.254 1295.688) rotate(0 28.397999999999996 43)"><path d="M28.1 78.89 C37.2 81.89, 46.83 83.04, 57.59 84.41 M28.1 78.89 C37.99 81.67, 48.97 83.32, 57.59 84.41" stroke="black" stroke-width="2" fill="none"></path></g><g transform="translate(340.254 1295.688) rotate(0 28.397999999999996 43)"><path d="M38.55 61.23 C44.46 69.73, 50.83 76.41, 57.59 84.41 M38.55 61.23 C44.92 69.99, 52.35 77.67, 57.59 84.41" stroke="black" stroke-width="2" fill="none"></path></g></g><mask id="mask-EtDbRr0g5fI1AXvvcOoVK"><rect x="0" y="0" fill="#fff" width="499.55" height="1482.688"></rect><rect x="327.0323203125" y="1325.938" fill="#000" width="24.443359375" height="25" opacity="1"></rect></mask><g mask="url(#mask-Q5ZYXbrsX49twbQnByad3)" stroke-linecap="round"><g transform="translate(441.351 1194.09) rotate(0 138.66899999999998 93.79900000000009)"><path d="M-0.1 0.71 C46.04 24.89, 231.15 113.51, 277.47 144.72 C323.8 175.93, 277.92 180.85, 277.83 187.96 M-1.62 0.04 C44.33 23.87, 230.11 111.83, 276.6 142.79 C323.09 173.75, 277.27 178.22, 277.32 185.81" stroke="black" stroke-width="2" fill="none"></path></g><g transform="translate(441.351 1194.09) rotate(0 138.66899999999998 93.79900000000009)"><path d="M288.69 167.42 C285.84 174.1, 281.27 181.15, 277.32 185.81 M288.69 167.42 C285.66 174.22, 281.68 179.17, 277.32 185.81" stroke="black" stroke-width="2" fill="none"></path></g><g transform="translate(441.351 1194.09) rotate(0 138.66899999999998 93.79900000000009)"><path d="M297.86 179.03 C291.81 181.62, 284.02 184.6, 277.32 185.81 M297.86 179.03 C291.84 181.98, 284.83 183.09, 277.32 185.81" stroke="black" stroke-width="2" fill="none"></path></g></g><mask id="mask-Q5ZYXbrsX49twbQnByad3"><rect x="0" y="0" fill="#fff" width="818.689" height="1482.688"></rect><rect x="704.1333359375" y="1325.9380000000003" fill="#000" width="29.111328125" height="25" opacity="1"></rect></mask><g stroke-linecap="round"><g transform="translate(719.189 1435.188) rotate(0 -0.25 24.75)"><path d="M0.71 0.14 C0.75 8.49, 0.01 41.84, -0.13 49.99 M-0.37 -0.84 C-0.43 7.16, -0.83 39.63, -0.89 48.13" stroke="black" stroke-width="2" fill="none"></path></g><g transform="translate(719.189 1435.188) rotate(0 -0.25 24.75)"><path d="M-9.12 24.79 C-6.67 31.71, -3.84 38.07, -0.89 48.13 M-9.12 24.79 C-6.25 31.45, -5.2 37.06, -0.89 48.13" stroke="black" stroke-width="2" fill="none"></path></g><g transform="translate(719.189 1435.188) rotate(0 -0.25 24.75)"><path d="M7.81 24.95 C5.65 31.93, 3.87 38.24, -0.89 48.13 M7.81 24.95 C6.21 31.71, 2.79 37.27, -0.89 48.13" stroke="black" stroke-width="2" fill="none"></path></g></g><mask></mask><g mask="url(#mask-o4Txz9by4Y2JfKz2QnLyq)" stroke-linecap="round"><g transform="translate(719.189 1719.711) rotate(0 -0.25 43)"><path d="M0.14 0.37 C0.15 7.44, 0.17 28.88, -0.01 43.11 C-0.19 57.35, -1.01 78.48, -0.93 85.77 M-1.25 -0.48 C-1.34 6.15, -0.59 26.61, -0.7 41.18 C-0.81 55.76, -2.24 79.7, -1.92 86.97" stroke="black" stroke-width="2" fill="none"></path></g><g transform="translate(719.189 1719.711) rotate(0 -0.25 43)"><path d="M-9.11 66.58 C-6.28 73.33, -4.19 77.74, -1.92 86.97 M-9.11 66.58 C-6.37 71.87, -4.91 78.44, -1.92 86.97" stroke="black" stroke-width="2" fill="none"></path></g><g transform="translate(719.189 1719.711) rotate(0 -0.25 43)"><path d="M5.68 66.72 C4.2 73.45, 1.98 77.82, -1.92 86.97 M5.68 66.72 C4.27 72.09, 1.57 78.61, -1.92 86.97" stroke="black" stroke-width="2" fill="none"></path></g></g><mask id="mask-o4Txz9by4Y2JfKz2QnLyq"><rect x="0" y="0" fill="#fff" width="819.689" height="1906.711"></rect><rect x="704.1333359375" y="1749.961" fill="#000" width="29.111328125" height="25" opacity="1"></rect></mask><g stroke-linecap="round"><g transform="translate(719.189 1859.211) rotate(0 31.375 80.26750000000004)"><path d="M0.37 0.49 C10.77 27.15, 52.76 133.27, 63.11 160.11 M-0.9 -0.3 C9.32 26.52, 51.94 134.76, 62.36 161.42" stroke="black" stroke-width="2" fill="none"></path></g><g transform="translate(719.189 1859.211) rotate(0 31.375 80.26750000000004)"><path d="M42.51 138.92 C50.49 147.56, 56.09 154.66, 62.36 161.42 M42.51 138.92 C49.82 147.34, 58.18 155.92, 62.36 161.42" stroke="black" stroke-width="2" fill="none"></path></g><g transform="translate(719.189 1859.211) rotate(0 31.375 80.26750000000004)"><path d="M61.61 131.43 C62.73 142.81, 61.47 152.61, 62.36 161.42 M61.61 131.43 C61.74 142.79, 62.85 154.22, 62.36 161.42" stroke="black" stroke-width="2" fill="none"></path></g></g><mask></mask><g mask="url(#mask-4Rhf-sD11UqjjLWvlrQCv)" stroke-linecap="round"><g transform="translate(800.966 1637.934) rotate(0 145.4155 83.88850000000002)"><path d="M0.49 0.36 C48.87 21.02, 241.85 96.25, 290.4 124.3 C338.95 152.35, 291.59 161.5, 291.78 168.67 M-0.71 -0.49 C47.46 20.32, 240.52 97.84, 289.23 125.72 C337.93 153.6, 291.03 159.72, 291.51 166.8" stroke="black" stroke-width="2" fill="none"></path></g><g transform="translate(800.966 1637.934) rotate(0 145.4155 83.88850000000002)"><path d="M302.86 148.39 C299.99 153.45, 295.47 161.48, 291.51 166.8 M302.86 148.39 C298.72 155.69, 294.52 162.8, 291.51 166.8" stroke="black" stroke-width="2" fill="none"></path></g><g transform="translate(800.966 1637.934) rotate(0 145.4155 83.88850000000002)"><path d="M312.04 159.99 C306.27 161.48, 298.9 165.89, 291.51 166.8 M312.04 159.99 C304.39 162.91, 296.76 165.68, 291.51 166.8" stroke="black" stroke-width="2" fill="none"></path></g></g><mask id="mask-4Rhf-sD11UqjjLWvlrQCv"><rect x="0" y="0" fill="#fff" width="1191.797" height="1906.711"></rect><rect x="1079.5753203125" y="1749.961" fill="#000" width="24.443359375" height="25" opacity="1"></rect></mask><g stroke-linecap="round"><g transform="translate(1092.297 1859.211) rotate(0 -0.25 24.75)"><path d="M0.36 -0.43 C0.18 7.9, -0.73 42.01, -0.73 50.45 M-0.9 -1.7 C-1.3 6.26, -1.96 40.51, -1.8 48.82" stroke="black" stroke-width="2" fill="none"></path></g><g transform="translate(1092.297 1859.211) rotate(0 -0.25 24.75)"><path d="M-10.18 25.54 C-8.03 32.83, -2.96 42.4, -1.8 48.82 M-10.18 25.54 C-6.83 33.9, -3.62 42.34, -1.8 48.82" stroke="black" stroke-width="2" fill="none"></path></g><g transform="translate(1092.297 1859.211) rotate(0 -0.25 24.75)"><path d="M6.75 25.59 C3.3 32.92, 2.77 42.48, -1.8 48.82 M6.75 25.59 C4.07 33.94, 1.23 42.36, -1.8 48.82" stroke="black" stroke-width="2" fill="none"></path></g></g><mask></mask><g mask="url(#mask-N3ojFeIOx1jqek18gCs2a)" stroke-linecap="round"><g transform="translate(1092.797 2185.281) rotate(0 25.747499999999945 43)"><path d="M-0.43 -0.23 C-0.52 6.99, -8.99 29.35, -0.05 43.64 C8.88 57.94, 44.42 78.39, 53.17 85.54 M1.55 -1.39 C1.34 5.46, -9.04 27.32, -0.5 41.99 C8.03 56.66, 43.89 79.57, 52.76 86.62" stroke="black" stroke-width="2" fill="none"></path></g><g transform="translate(1092.797 2185.281) rotate(0 25.747499999999945 43)"><path d="M23.91 78.43 C33.39 82.9, 45.1 85.25, 52.76 86.62 M23.91 78.43 C31.52 81.11, 39.22 82.6, 52.76 86.62" stroke="black" stroke-width="2" fill="none"></path></g><g transform="translate(1092.797 2185.281) rotate(0 25.747499999999945 43)"><path d="M35.92 61.79 C41.36 71.9, 48.97 79.91, 52.76 86.62 M35.92 61.79 C40.39 68.89, 44.95 74.73, 52.76 86.62" stroke="black" stroke-width="2" fill="none"></path></g></g><mask id="mask-N3ojFeIOx1jqek18gCs2a"><rect x="0" y="0" fill="#fff" width="1246.792" height="2372.281"></rect><rect x="1079.5753203125" y="2215.531" fill="#000" width="24.443359375" height="25" opacity="1"></rect></mask><g mask="url(#mask-yMS_P45Ze9NSIQqhITn1c)" stroke-linecap="round"><g transform="translate(1181.828 2095.75) rotate(0 123.39750000000004 87.76549999999997)"><path d="M-0.23 0.95 C40.99 23.18, 206.59 103.86, 247.69 132.96 C288.78 162.06, 246.4 168.43, 246.34 175.54 M-1.81 0.4 C39.3 22.32, 206.02 101.78, 247.21 131.19 C288.4 160.6, 245.22 169.26, 245.33 176.86" stroke="black" stroke-width="2" fill="none"></path></g><g transform="translate(1181.828 2095.75) rotate(0 123.39750000000004 87.76549999999997)"><path d="M255.07 157.55 C253.37 165.4, 249.7 169.53, 245.33 176.86 M255.07 157.55 C252.9 163.55, 249.32 169.15, 245.33 176.86" stroke="black" stroke-width="2" fill="none"></path></g><g transform="translate(1181.828 2095.75) rotate(0 123.39750000000004 87.76549999999997)"><path d="M265.21 168.33 C260.19 172.6, 253.18 173.16, 245.33 176.86 M265.21 168.33 C259.94 171.1, 253.31 173.46, 245.33 176.86" stroke="black" stroke-width="2" fill="none"></path></g></g><mask id="mask-yMS_P45Ze9NSIQqhITn1c"><rect x="0" y="0" fill="#fff" width="1528.623" height="2372.281"></rect><rect x="1414.0673359375" y="2215.531" fill="#000" width="29.111328125" height="25" opacity="1"></rect></mask><g stroke-linecap="round"><g transform="translate(1429.123 2324.781) rotate(0 -0.25 24.75)"><path d="M0.95 0.89 C1.05 9.11, 0.42 40.85, 0.18 49.04 M-0.01 0.32 C0.03 8.71, -0.2 42.4, -0.41 50.34" stroke="black" stroke-width="2" fill="none"></path></g><g transform="translate(1429.123 2324.781) rotate(0 -0.25 24.75)"><path d="M-8.54 26.96 C-4.95 34.2, -5.05 39.26, -0.41 50.34 M-8.54 26.96 C-5.52 34.98, -2.92 43.48, -0.41 50.34" stroke="black" stroke-width="2" fill="none"></path></g><g transform="translate(1429.123 2324.781) rotate(0 -0.25 24.75)"><path d="M8.39 27.21 C7.51 34.52, 2.93 39.51, -0.41 50.34 M8.39 27.21 C5.56 35.26, 2.32 43.67, -0.41 50.34" stroke="black" stroke-width="2" fill="none"></path></g></g><mask></mask><g mask="url(#mask-dq4LHUzrxp2zEaTnp8BRR)" stroke-linecap="round"><g transform="translate(1429.623 2592.672) rotate(0 21.202499999999986 43)"><path d="M0.89 0.68 C0.69 7.65, -8.63 28.52, -1.46 42.75 C5.72 56.99, 36.34 78.82, 43.95 86.07 M-0.1 -0.01 C-0.48 7.08, -9.91 29.72, -2.64 44.29 C4.62 58.87, 35.55 80.23, 43.47 87.43" stroke="black" stroke-width="2" fill="none"></path></g><g transform="translate(1429.623 2592.672) rotate(0 21.202499999999986 43)"><path d="M15.08 77.72 C24.26 79.48, 31.12 83.87, 43.47 87.43 M15.08 77.72 C23.83 80.63, 32.94 83.33, 43.47 87.43" stroke="black" stroke-width="2" fill="none"></path></g><g transform="translate(1429.623 2592.672) rotate(0 21.202499999999986 43)"><path d="M27.95 61.75 C33.65 68.09, 36.88 76.97, 43.47 87.43 M27.95 61.75 C32.88 69.57, 38.05 77.15, 43.47 87.43" stroke="black" stroke-width="2" fill="none"></path></g></g><mask id="mask-dq4LHUzrxp2zEaTnp8BRR"><rect x="0" y="0" fill="#fff" width="1574.528" height="2779.672"></rect><rect x="1416.4013203125" y="2622.922" fill="#000" width="24.443359375" height="25" opacity="1"></rect></mask><g mask="url(#mask-ZG40fVM1UDHXEQIutMUYL)" stroke-linecap="round"><g transform="translate(1500.528 2521.267) rotate(0 110.00249999999994 78.7025000000001)"><path d="M0.68 -0.46 C37.19 18.51, 183.44 88.25, 220.01 114.7 C256.58 141.14, 220.04 151.09, 220.08 158.21 M-0.42 -1.74 C35.85 16.79, 182.44 86.52, 219.06 112.86 C255.69 139.2, 219.09 148.67, 219.35 156.28" stroke="black" stroke-width="2" fill="none"></path></g><g transform="translate(1500.528 2521.267) rotate(0 110.00249999999994 78.7025000000001)"><path d="M227.1 136.1 C223.55 143.8, 222.28 151.56, 219.35 156.28 M227.1 136.1 C224.29 143.93, 221.18 149.94, 219.35 156.28" stroke="black" stroke-width="2" fill="none"></path></g><g transform="translate(1500.528 2521.267) rotate(0 110.00249999999994 78.7025000000001)"><path d="M238.26 145.8 C230.41 149.89, 224.9 153.97, 219.35 156.28 M238.26 145.8 C231.34 150.08, 224.14 152.53, 219.35 156.28" stroke="black" stroke-width="2" fill="none"></path></g></g><mask id="mask-ZG40fVM1UDHXEQIutMUYL"><rect x="0" y="0" fill="#fff" width="1820.533" height="2779.672"></rect><rect x="1705.9773359374997" y="2622.9220000000005" fill="#000" width="29.111328125" height="25" opacity="1"></rect></mask><g stroke-linecap="round"><g transform="translate(1721.033 2732.172) rotate(0 -0.25 24.75)"><path d="M-0.46 0 C-0.6 8.15, -0.08 41.28, 0.04 49.57 M1.5 -1.04 C1.17 7.26, -0.36 42.44, -0.62 51.14" stroke="black" stroke-width="2" fill="none"></path></g><g transform="translate(1721.033 2732.172) rotate(0 -0.25 24.75)"><path d="M-8.2 27.58 C-5.22 37.34, -2.28 46.59, -0.62 51.14 M-8.2 27.58 C-5.34 34.85, -4.31 42.61, -0.62 51.14" stroke="black" stroke-width="2" fill="none"></path></g><g transform="translate(1721.033 2732.172) rotate(0 -0.25 24.75)"><path d="M8.71 28.22 C5.36 37.67, 1.97 46.69, -0.62 51.14 M8.71 28.22 C6.16 35.28, 1.78 42.84, -0.62 51.14" stroke="black" stroke-width="2" fill="none"></path></g></g><mask></mask><g mask="url(#mask-Ba5THbYRk2xx8Lon11nV9)" stroke-linecap="round"><g transform="translate(1721.533 3029.008) rotate(0 23.464000000000055 43)"><path d="M0 0.54 C-0.26 7.88, -8.96 29.31, -0.93 43.55 C7.1 57.8, 40.02 78.85, 48.17 86.01 M-1.45 -0.22 C-1.93 6.82, -10 27.26, -1.84 41.85 C6.32 56.44, 39.19 80.27, 47.53 87.33" stroke="black" stroke-width="2" fill="none"></path></g><g transform="translate(1721.533 3029.008) rotate(0 23.464000000000055 43)"><path d="M19.08 77.81 C30.09 81.32, 40.66 84.99, 47.53 87.33 M19.08 77.81 C27.36 79.59, 36.14 83.36, 47.53 87.33" stroke="black" stroke-width="2" fill="none"></path></g><g transform="translate(1721.533 3029.008) rotate(0 23.464000000000055 43)"><path d="M31.85 61.75 C38.25 70.99, 44.27 80.39, 47.53 87.33 M31.85 61.75 C36.29 68.41, 41.24 77.01, 47.53 87.33" stroke="black" stroke-width="2" fill="none"></path></g></g><mask id="mask-Ba5THbYRk2xx8Lon11nV9"><rect x="0" y="0" fill="#fff" width="1870.961" height="3216.008"></rect><rect x="1708.3113203125" y="3059.258" fill="#000" width="24.443359375" height="25" opacity="1"></rect></mask><g mask="url(#mask-0A29klKbskHCL5R2sSOSk)" stroke-linecap="round"><g transform="translate(2032.246 3271.008) rotate(0 13.105000000000018 43.25)"><path d="M0.54 0.07 C5.12 14.53, 22.73 72.33, 27.01 86.74 M-0.63 -0.94 C3.9 13.13, 22.13 69.95, 26.48 84.74" stroke="black" stroke-width="2" fill="none"></path></g><g transform="translate(2032.246 3271.008) rotate(0 13.105000000000018 43.25)"><path d="M8.35 60.84 C13.22 68.35, 18.25 73.29, 26.48 84.74 M8.35 60.84 C12.93 68.01, 19.27 75.36, 26.48 84.74" stroke="black" stroke-width="2" fill="none"></path></g><g transform="translate(2032.246 3271.008) rotate(0 13.105000000000018 43.25)"><path d="M27.96 54.78 C27.69 63.97, 27.58 70.49, 26.48 84.74 M27.96 54.78 C26.68 63.71, 27.15 72.87, 26.48 84.74" stroke="black" stroke-width="2" fill="none"></path></g></g><mask id="mask-0A29klKbskHCL5R2sSOSk"><rect x="0" y="0" fill="#fff" width="2159.456" height="3458.508"></rect><rect x="2033.1293203125" y="3301.758" fill="#000" width="24.443359375" height="25" opacity="1"></rect></mask><g mask="url(#mask-qcK43puiJZDEe8Kau72b_)" stroke-linecap="round"><g transform="translate(2054.492 3251.806) rotate(0 142.51049999999998 52.850999999999885)"><path d="M0.07 0.8 C33.14 11.12, 150.95 44.89, 198.44 62.46 C245.93 80.03, 270.64 99.21, 285.02 106.22 M-1.35 0.18 C31.58 10.65, 150.01 46.67, 197.61 64 C245.21 81.33, 269.72 97.31, 284.25 104.15" stroke="black" stroke-width="2" fill="none"></path></g><g transform="translate(2054.492 3251.806) rotate(0 142.51049999999998 52.850999999999885)"><path d="M254.51 100.21 C264.79 101.77, 272.41 102.55, 284.25 104.15 M254.51 100.21 C264.67 101.79, 275.07 102.42, 284.25 104.15" stroke="black" stroke-width="2" fill="none"></path></g><g transform="translate(2054.492 3251.806) rotate(0 142.51049999999998 52.850999999999885)"><path d="M264 82.01 C271.52 89.05, 276.28 95.29, 284.25 104.15 M264 82.01 C270.85 89.76, 277.99 96.63, 284.25 104.15" stroke="black" stroke-width="2" fill="none"></path></g></g><mask id="mask-qcK43puiJZDEe8Kau72b_"><rect x="0" y="0" fill="#fff" width="2440.513" height="3458.508"></rect><rect x="2238.1353359375" y="3301.7580000000003" fill="#000" width="29.111328125" height="25" opacity="1"></rect></mask><g mask="url(#mask-myJHQPWKwX23qQkmAAydc)" stroke-linecap="round"><g transform="translate(1801.203 2948.838) rotate(0 115.27150000000006 83.08499999999981)"><path d="M0.8 0.24 C39.14 20.71, 192.17 95.31, 230.55 122.92 C268.93 150.52, 231.26 158.64, 231.06 165.84 M-0.24 -0.68 C37.89 19.99, 191.14 96.51, 229.61 124.45 C268.08 152.4, 230.67 159.86, 230.57 166.99" stroke="black" stroke-width="2" fill="none"></path></g><g transform="translate(1801.203 2948.838) rotate(0 115.27150000000006 83.08499999999981)"><path d="M239.79 147.43 C237.02 154.25, 233.43 161.86, 230.57 166.99 M239.79 147.43 C237.03 152.9, 233.8 158.31, 230.57 166.99" stroke="black" stroke-width="2" fill="none"></path></g><g transform="translate(1801.203 2948.838) rotate(0 115.27150000000006 83.08499999999981)"><path d="M250.21 157.93 C243.83 161.2, 236.65 165.18, 230.57 166.99 M250.21 157.93 C244.71 160.53, 238.63 163.08, 230.57 166.99" stroke="black" stroke-width="2" fill="none"></path></g></g><mask id="mask-myJHQPWKwX23qQkmAAydc"><rect x="0" y="0" fill="#fff" width="2131.746" height="3216.008"></rect><rect x="2017.1903359375" y="3059.2579999999994" fill="#000" width="29.111328125" height="25" opacity="1"></rect></mask><g stroke-linecap="round"><g transform="translate(2031.746 3168.508) rotate(0 0 24.5)"><path d="M0.24 0.01 C0.23 8.13, 0.09 41.55, 0 49.52 M-1.1 -1.03 C-1.27 6.66, -0.93 39.41, -0.95 47.67" stroke="black" stroke-width="2" fill="none"></path></g><g transform="translate(2031.746 3168.508) rotate(0 0 24.5)"><path d="M-9.43 24.68 C-6.67 31.69, -3.22 38.18, -0.95 47.67 M-9.43 24.68 C-7.57 28.6, -5.76 34.84, -0.95 47.67" stroke="black" stroke-width="2" fill="none"></path></g><g transform="translate(2031.746 3168.508) rotate(0 0 24.5)"><path d="M7.33 24.62 C4.96 31.68, 3.28 38.19, -0.95 47.67 M7.33 24.62 C5.78 28.53, 4.17 34.79, -0.95 47.67" stroke="black" stroke-width="2" fill="none"></path></g></g><mask></mask><g stroke-linecap="round"><g transform="translate(1835.573 3115.008) rotate(0 -111.82700000000011 -1432.3995)"><path d="M0.01 0 C10.17 -7.31, 109.46 433.9, 61.78 -43.58 C14.1 -521.05, -228.28 -2394.68, -286.07 -2864.85 M-1.45 -1.05 C8.53 -8.2, 108.16 434.87, 61.11 -42.21 C14.05 -519.3, -226.13 -2393.36, -283.78 -2863.56" stroke="black" stroke-width="2" fill="none"></path></g><g transform="translate(1835.573 3115.008) rotate(0 -111.82700000000011 -1432.3995)"><path d="M-270.09 -2836.86 C-275.17 -2845.78, -280.73 -2858.37, -283.78 -2863.56 M-270.09 -2836.86 C-274.91 -2844.51, -277.4 -2853.42, -283.78 -2863.56" stroke="black" stroke-width="2" fill="none"></path></g><g transform="translate(1835.573 3115.008) rotate(0 -111.82700000000011 -1432.3995)"><path d="M-290.46 -2834.31 C-288.07 -2844.17, -286.16 -2857.69, -283.78 -2863.56 M-290.46 -2834.31 C-289.25 -2842.75, -285.72 -2852.41, -283.78 -2863.56" stroke="black" stroke-width="2" fill="none"></path></g></g><mask></mask><g stroke-linecap="round"><g transform="translate(480.915 1381.688) rotate(0 465.8365 -568.0685000000001)"><path d="M0 0.52 C12.68 -6.88, -78.95 145.05, 76.32 -44.4 C231.59 -233.86, 789.03 -954.09, 931.62 -1136.2 M-1.47 -0.25 C11.01 -7.55, -80.18 145.64, 75.2 -43.47 C230.58 -232.58, 788 -952.75, 930.83 -1134.92" stroke="black" stroke-width="2" fill="none"></path></g><g transform="translate(480.915 1381.688) rotate(0 465.8365 -568.0685000000001)"><path d="M921.6 -1106.37 C925.42 -1116.05, 925.58 -1124.72, 930.83 -1134.92 M921.6 -1106.37 C924.5 -1113.93, 926.2 -1123.84, 930.83 -1134.92" stroke="black" stroke-width="2" fill="none"></path></g><g transform="translate(480.915 1381.688) rotate(0 465.8365 -568.0685000000001)"><path d="M905.41 -1118.99 C914.41 -1124.63, 919.75 -1129.26, 930.83 -1134.92 M905.41 -1118.99 C913.1 -1122.71, 919.57 -1128.9, 930.83 -1134.92" stroke="black" stroke-width="2" fill="none"></path></g></g><mask></mask><g stroke-linecap="round"><g transform="translate(807.452 2019.746) rotate(0 302.568 -886.1235)"><path d="M0.52 -0.33 C10.87 -23.01, -38.66 159.2, 62.1 -136.09 C162.85 -431.38, 514.72 -1499.43, 605.07 -1772.07 M-0.67 -1.55 C10.03 -24.03, -36.62 160.28, 64.2 -134.58 C165.02 -429.43, 514.31 -1497.97, 604.27 -1770.67" stroke="black" stroke-width="2" fill="none"></path></g><g transform="translate(807.452 2019.746) rotate(0 302.568 -886.1235)"><path d="M605.22 -1740.68 C604.39 -1751.62, 604.57 -1758.82, 604.27 -1770.67 M605.22 -1740.68 C605.93 -1750.9, 604.14 -1758.75, 604.27 -1770.67" stroke="black" stroke-width="2" fill="none"></path></g><g transform="translate(807.452 2019.746) rotate(0 302.568 -886.1235)"><path d="M585.73 -1747.08 C590.76 -1756.18, 596.79 -1761.45, 604.27 -1770.67 M585.73 -1747.08 C592.52 -1755.33, 596.85 -1761.17, 604.27 -1770.67" stroke="black" stroke-width="2" fill="none"></path></g></g><mask></mask><g stroke-linecap="round"><g transform="translate(1218.578 2271.281) rotate(0 97.005 -1005.8534999999999)"><path d="M-0.33 -1.15 C10.66 -8.46, 33.51 291.93, 65.93 -43.31 C98.35 -378.56, 172.79 -1684.73, 194.18 -2012.64 M1.7 0.85 C12.53 -6.3, 32.99 293.63, 64.96 -41.81 C96.92 -377.26, 171.89 -1683.31, 193.51 -2011.81" stroke="black" stroke-width="2" fill="none"></path></g><g transform="translate(1218.578 2271.281) rotate(0 97.005 -1005.8534999999999)"><path d="M202.01 -1983.05 C197.42 -1991.77, 196.68 -2000.02, 193.51 -2011.81 M202.01 -1983.05 C199.27 -1990.09, 198.95 -1995.71, 193.51 -2011.81" stroke="black" stroke-width="2" fill="none"></path></g><g transform="translate(1218.578 2271.281) rotate(0 97.005 -1005.8534999999999)"><path d="M181.53 -1984.31 C183.08 -1992.6, 188.48 -2000.47, 193.51 -2011.81 M181.53 -1984.31 C183.34 -1991.23, 187.57 -1996.57, 193.51 -2011.81" stroke="black" stroke-width="2" fill="none"></path></g></g><mask></mask><g stroke-linecap="round"><g transform="translate(1534.165 2678.672) rotate(0 28.744500000000016 -1205.336)"><path d="M-1.15 -0.05 C8.33 -7.18, 56.67 358.65, 57.42 -43.08 C58.18 -444.8, 12.08 -2015.65, 3.38 -2410.4 M0.44 -1.12 C9.72 -8, 55.55 359.85, 56.44 -41.45 C57.33 -442.75, 14.19 -2014.02, 5.79 -2408.94" stroke="black" stroke-width="2" fill="none"></path></g><g transform="translate(1534.165 2678.672) rotate(0 28.744500000000016 -1205.336)"><path d="M16.73 -2381.01 C12.96 -2390.82, 9.58 -2401.86, 5.79 -2408.94 M16.73 -2381.01 C12.26 -2389.32, 9.5 -2399.23, 5.79 -2408.94" stroke="black" stroke-width="2" fill="none"></path></g><g transform="translate(1534.165 2678.672) rotate(0 28.744500000000016 -1205.336)"><path d="M-3.79 -2380.51 C-0.51 -2390.29, 3.15 -2401.5, 5.79 -2408.94 M-3.79 -2380.51 C-1.64 -2388.82, 2.21 -2398.89, 5.79 -2408.94" stroke="black" stroke-width="2" fill="none"></path></g></g><mask></mask><g stroke-linecap="round"><g transform="translate(2127.174 3357.508) rotate(0 -244.34699999999998 -1555.4845)"><path d="M-0.05 -0.06 C14.67 -7.24, 184.03 474.14, 88 -44.18 C-8.04 -562.51, -465.34 -2598.76, -576.25 -3110.04 M-1.54 -1.14 C13.07 -8.09, 183.03 475.32, 87.14 -43.14 C-8.75 -561.6, -466.06 -2600.55, -576.87 -3111.89" stroke="black" stroke-width="2" fill="none"></path></g><g transform="translate(2127.174 3357.508) rotate(0 -244.34699999999998 -1555.4845)"><path d="M-560.78 -3086.57 C-565.04 -3093.19, -570.87 -3099.94, -576.87 -3111.89 M-560.78 -3086.57 C-565.88 -3096.2, -572.85 -3105.84, -576.87 -3111.89" stroke="black" stroke-width="2" fill="none"></path></g><g transform="translate(2127.174 3357.508) rotate(0 -244.34699999999998 -1555.4845)"><path d="M-580.83 -3082.15 C-579.57 -3089.97, -579.94 -3097.92, -576.87 -3111.89 M-580.83 -3082.15 C-578.32 -3093.31, -577.72 -3104.61, -576.87 -3111.89" stroke="black" stroke-width="2" fill="none"></path></g></g><mask></mask><g stroke-linecap="round"><g transform="translate(2398.974 3357.508) rotate(0 -418.01800000000026 -1555.99)"><path d="M-0.06 0.17 C2.02 -6.98, 152.57 475.87, 11.35 -42.98 C-129.87 -561.83, -703.96 -2601.59, -847.38 -3112.93 M-1.56 -0.78 C1 -8.31, 154.58 473.59, 13.57 -44.96 C-127.45 -563.52, -703.83 -2600.75, -847.66 -3112.11" stroke="black" stroke-width="2" fill="none"></path></g><g transform="translate(2398.974 3357.508) rotate(0 -418.01800000000026 -1555.99)"><path d="M-830.13 -3087.76 C-833.41 -3094.29, -836.82 -3096.14, -847.66 -3112.11 M-830.13 -3087.76 C-833.78 -3093.12, -837.73 -3098.07, -847.66 -3112.11" stroke="black" stroke-width="2" fill="none"></path></g><g transform="translate(2398.974 3357.508) rotate(0 -418.01800000000026 -1555.99)"><path d="M-849.88 -3082.19 C-849.13 -3089.85, -848.52 -3092.83, -847.66 -3112.11 M-849.88 -3082.19 C-849.13 -3088.94, -848.71 -3095.11, -847.66 -3112.11" stroke="black" stroke-width="2" fill="none"></path></g></g><mask></mask><g transform="translate(1439.6796875 23.75) rotate(0 41.943359375 12.5)"><text x="41.943359375" y="0" font-family="Virgil, Segoe UI Emoji" font-size="20px" fill="#1e1e1e" text-anchor="middle" style="white-space: pre;" direction="ltr" dominant-baseline="text-before-edge">Start Shell</text></g><g transform="translate(1406.37890625 126.25) rotate(0 75.244140625 12.5)"><text x="75.244140625" y="0" font-family="Virgil, Segoe UI Emoji" font-size="20px" fill="#1e1e1e" text-anchor="middle" style="white-space: pre;" direction="ltr" dominant-baseline="text-before-edge">Initialize Variables</text></g><g transform="translate(1434.1279296875 228.75) rotate(0 47.4951171875 12.5)"><text x="47.4951171875" y="0" font-family="Virgil, Segoe UI Emoji" font-size="20px" fill="#1e1e1e" text-anchor="middle" style="white-space: pre;" direction="ltr" dominant-baseline="text-before-edge">Begin Loop</text></g><g transform="translate(159.1328125 331.25) rotate(0 63.056640625 12.5)"><text x="63.056640625" y="0" font-family="Virgil, Segoe UI Emoji" font-size="20px" fill="#1e1e1e" text-anchor="middle" style="white-space: pre;" direction="ltr" dominant-baseline="text-before-edge">Display Prompt</text></g><g transform="translate(178.0341796875 433.75) rotate(0 44.1552734375 12.5)"><text x="44.1552734375" y="0" font-family="Virgil, Segoe UI Emoji" font-size="20px" fill="#1e1e1e" text-anchor="middle" style="white-space: pre;" direction="ltr" dominant-baseline="text-before-edge">Read Input</text></g><g transform="translate(167.58203125 633.673828125) rotate(0 54.43359375 25)"><text x="54.43359375" y="0" font-family="Virgil, Segoe UI Emoji" font-size="20px" fill="#1e1e1e" text-anchor="middle" style="white-space: pre;" direction="ltr" dominant-baseline="text-before-edge">Read </text><text x="54.43359375" y="25" font-family="Virgil, Segoe UI Emoji" font-size="20px" fill="#1e1e1e" text-anchor="middle" style="white-space: pre;" direction="ltr" dominant-baseline="text-before-edge">Failure/EOF?</text></g><g transform="translate(44.0361328125 896.4453125) rotate(0 61.0888671875 12.5)"><text x="61.0888671875" y="0" font-family="Virgil, Segoe UI Emoji" font-size="20px" fill="#1e1e1e" text-anchor="middle" style="white-space: pre;" direction="ltr" dominant-baseline="text-before-edge">Free/Error/Exit</text></g><g transform="translate(279.1416015625 896.4453125) rotate(0 60.1123046875 12.5)"><text x="60.1123046875" y="0" font-family="Virgil, Segoe UI Emoji" font-size="20px" fill="#1e1e1e" text-anchor="middle" style="white-space: pre;" direction="ltr" dominant-baseline="text-before-edge">Tokenize Input</text></g><g transform="translate(284.8203125 1115.068359375) rotate(0 54.560546875 25)"><text x="54.560546875" y="0" font-family="Virgil, Segoe UI Emoji" font-size="20px" fill="#1e1e1e" text-anchor="middle" style="white-space: pre;" direction="ltr" dominant-baseline="text-before-edge">Tokenization </text><text x="54.560546875" y="25" font-family="Virgil, Segoe UI Emoji" font-size="20px" fill="#1e1e1e" text-anchor="middle" style="white-space: pre;" direction="ltr" dominant-baseline="text-before-edge">Success?</text></g><g transform="translate(353.0380859375 1395.9375) rotate(0 81.0888671875 12.5)"><text x="81.0888671875" y="0" font-family="Virgil, Segoe UI Emoji" font-size="20px" fill="#1e1e1e" text-anchor="middle" style="white-space: pre;" direction="ltr" dominant-baseline="text-before-edge">Free/Error/Continue</text></g><g transform="translate(640.92578125 1395.9375) rotate(0 77.763671875 12.5)"><text x="77.763671875" y="0" font-family="Virgil, Segoe UI Emoji" font-size="20px" fill="#1e1e1e" text-anchor="middle" style="white-space: pre;" direction="ltr" dominant-baseline="text-before-edge">Check for Built-Ins</text></g><g transform="translate(684.5185546875 1576.693359375) rotate(0 34.1650390625 25)"><text x="34.1650390625" y="0" font-family="Virgil, Segoe UI Emoji" font-size="20px" fill="#1e1e1e" text-anchor="middle" style="white-space: pre;" direction="ltr" dominant-baseline="text-before-edge">Built-In </text><text x="34.1650390625" y="25" font-family="Virgil, Segoe UI Emoji" font-size="20px" fill="#1e1e1e" text-anchor="middle" style="white-space: pre;" direction="ltr" dominant-baseline="text-before-edge">Found?</text></g><g transform="translate(652.322265625 1819.9609375) rotate(0 66.3671875 12.5)"><text x="66.3671875" y="0" font-family="Virgil, Segoe UI Emoji" font-size="20px" fill="#1e1e1e" text-anchor="middle" style="white-space: pre;" direction="ltr" dominant-baseline="text-before-edge">Execute Built-In</text></g><g transform="translate(737.4833984375 2033.99609375) rotate(0 57.2119140625 12.5)"><text x="57.2119140625" y="0" font-family="Virgil, Segoe UI Emoji" font-size="20px" fill="#1e1e1e" text-anchor="middle" style="white-space: pre;" direction="ltr" dominant-baseline="text-before-edge">Free/Continue</text></g><g transform="translate(1003.5107421875 1819.9609375) rotate(0 88.2861328125 12.5)"><text x="88.2861328125" y="0" font-family="Virgil, Segoe UI Emoji" font-size="20px" fill="#1e1e1e" text-anchor="middle" style="white-space: pre;" direction="ltr" dominant-baseline="text-before-edge">Search for Executable</text></g><g transform="translate(1044.9853515625 2021.603515625) rotate(0 46.9189453125 25)"><text x="46.9189453125" y="0" font-family="Virgil, Segoe UI Emoji" font-size="20px" fill="#1e1e1e" text-anchor="middle" style="white-space: pre;" direction="ltr" dominant-baseline="text-before-edge">Executable </text><text x="46.9189453125" y="25" font-family="Virgil, Segoe UI Emoji" font-size="20px" fill="#1e1e1e" text-anchor="middle" style="white-space: pre;" direction="ltr" dominant-baseline="text-before-edge">Found?</text></g><g transform="translate(1097.1005859375 2285.53125) rotate(0 81.0888671875 12.5)"><text x="81.0888671875" y="0" font-family="Virgil, Segoe UI Emoji" font-size="20px" fill="#1e1e1e" text-anchor="middle" style="white-space: pre;" direction="ltr" dominant-baseline="text-before-edge">Free/Error/Continue</text></g><g transform="translate(1376.6796875 2285.53125) rotate(0 51.943359375 12.5)"><text x="51.943359375" y="0" font-family="Virgil, Segoe UI Emoji" font-size="20px" fill="#1e1e1e" text-anchor="middle" style="white-space: pre;" direction="ltr" dominant-baseline="text-before-edge">Fork Process</text></g><g transform="translate(1392.6767578125 2458.12890625) rotate(0 36.0986328125 25)"><text x="36.0986328125" y="0" font-family="Virgil, Segoe UI Emoji" font-size="20px" fill="#1e1e1e" text-anchor="middle" style="white-space: pre;" direction="ltr" dominant-baseline="text-before-edge">Fork </text><text x="36.0986328125" y="25" font-family="Virgil, Segoe UI Emoji" font-size="20px" fill="#1e1e1e" text-anchor="middle" style="white-space: pre;" direction="ltr" dominant-baseline="text-before-edge">Success?</text></g><g transform="translate(1419.3818359375 2692.921875) rotate(0 81.0888671875 12.5)"><text x="81.0888671875" y="0" font-family="Virgil, Segoe UI Emoji" font-size="20px" fill="#1e1e1e" text-anchor="middle" style="white-space: pre;" direction="ltr" dominant-baseline="text-before-edge">Free/Error/Continue</text></g><g transform="translate(1691.109375 2692.921875) rotate(0 29.423828125 12.5)"><text x="29.423828125" y="0" font-family="Virgil, Segoe UI Emoji" font-size="20px" fill="#1e1e1e" text-anchor="middle" style="white-space: pre;" direction="ltr" dominant-baseline="text-before-edge">Execve</text></g><g transform="translate(1684.3505859375 2879.755859375) rotate(0 36.0986328125 25)"><text x="36.0986328125" y="0" font-family="Virgil, Segoe UI Emoji" font-size="20px" fill="#1e1e1e" text-anchor="middle" style="white-space: pre;" direction="ltr" dominant-baseline="text-before-edge">Execve </text><text x="36.0986328125" y="25" font-family="Virgil, Segoe UI Emoji" font-size="20px" fill="#1e1e1e" text-anchor="middle" style="white-space: pre;" direction="ltr" dominant-baseline="text-before-edge">Success?</text></g><g transform="translate(1715.1787109375 3129.2578125) rotate(0 84.4384765625 12.5)"><text x="84.4384765625" y="0" font-family="Virgil, Segoe UI Emoji" font-size="20px" fill="#1e1e1e" text-anchor="middle" style="white-space: pre;" direction="ltr" dominant-baseline="text-before-edge">Free/Status/Continue</text></g><g transform="translate(1994.1923828125 3371.7578125) rotate(0 81.0888671875 12.5)"><text x="81.0888671875" y="0" font-family="Virgil, Segoe UI Emoji" font-size="20px" fill="#1e1e1e" text-anchor="middle" style="white-space: pre;" direction="ltr" dominant-baseline="text-before-edge">Free/Error/Continue</text></g><g transform="translate(2289.0615234375 3371.7578125) rotate(0 103.3447265625 12.5)"><text x="103.3447265625" y="0" font-family="Virgil, Segoe UI Emoji" font-size="20px" fill="#1e1e1e" text-anchor="middle" style="white-space: pre;" direction="ltr" dominant-baseline="text-before-edge">Free/SUCCESS/Continue</text></g><g transform="translate(1999.5439453125 3129.2578125) rotate(0 32.2021484375 12.5)"><text x="32.2021484375" y="0" font-family="Virgil, Segoe UI Emoji" font-size="20px" fill="#1e1e1e" text-anchor="middle" style="white-space: pre;" direction="ltr" dominant-baseline="text-before-edge">Execute</text></g><g transform="translate(2017.302734375 3231.7578125) rotate(0 14.443359375 12.5)"><text x="14.443359375" y="0" font-family="Virgil, Segoe UI Emoji" font-size="20px" fill="#1e1e1e" text-anchor="middle" style="white-space: pre;" direction="ltr" dominant-baseline="text-before-edge">AA</text></g><g transform="translate(90.5693359375 826.445) rotate(0 44.29714746310305 -14.151198810558753)"><text x="14.5556640625" y="0" font-family="Virgil, Segoe UI Emoji" font-size="20px" fill="black" text-anchor="middle" style="white-space: pre;" direction="ltr" dominant-baseline="text-before-edge">Yes</text></g><g transform="translate(327.0323203125 826.445) rotate(0 -17.500353606136912 -13.396927184384367)"><text x="12.2216796875" y="0" font-family="Virgil, Segoe UI Emoji" font-size="20px" fill="black" text-anchor="middle" style="white-space: pre;" direction="ltr" dominant-baseline="text-before-edge">No</text></g><g transform="translate(327.0323203125 1325.938) rotate(0 39.981028553768596 12.394376812996256)"><text x="12.2216796875" y="0" font-family="Virgil, Segoe UI Emoji" font-size="20px" fill="black" text-anchor="middle" style="white-space: pre;" direction="ltr" dominant-baseline="text-before-edge">No</text></g><g transform="translate(704.1333359375 1325.938) rotate(0 -114.50242563143775 -37.844639094393756)"><text x="14.5556640625" y="0" font-family="Virgil, Segoe UI Emoji" font-size="20px" fill="black" text-anchor="middle" style="white-space: pre;" direction="ltr" dominant-baseline="text-before-edge">Yes</text></g><g transform="translate(704.1333359375 1749.961) rotate(0 14.145183929233895 12.993934600911984)"><text x="14.5556640625" y="0" font-family="Virgil, Segoe UI Emoji" font-size="20px" fill="black" text-anchor="middle" style="white-space: pre;" direction="ltr" dominant-baseline="text-before-edge">Yes</text></g><g transform="translate(1079.5753203125 1749.961) rotate(0 -122.81487980608154 -27.93673501406238)"><text x="12.2216796875" y="0" font-family="Virgil, Segoe UI Emoji" font-size="20px" fill="black" text-anchor="middle" style="white-space: pre;" direction="ltr" dominant-baseline="text-before-edge">No</text></g><g transform="translate(1079.5753203125 2215.531) rotate(0 37.736767493978505 12.364074206314854)"><text x="12.2216796875" y="0" font-family="Virgil, Segoe UI Emoji" font-size="20px" fill="black" text-anchor="middle" style="white-space: pre;" direction="ltr" dominant-baseline="text-before-edge">No</text></g><g transform="translate(1414.0673359375 2215.531) rotate(0 -100.33172286748368 -31.152972317200238)"><text x="14.5556640625" y="0" font-family="Virgil, Segoe UI Emoji" font-size="20px" fill="black" text-anchor="middle" style="white-space: pre;" direction="ltr" dominant-baseline="text-before-edge">Yes</text></g><g transform="translate(1416.4013203125 2622.922) rotate(0 32.503071697094924 13.4574167004414)"><text x="12.2216796875" y="0" font-family="Virgil, Segoe UI Emoji" font-size="20px" fill="black" text-anchor="middle" style="white-space: pre;" direction="ltr" dominant-baseline="text-before-edge">No</text></g><g transform="translate(1705.9773359375 2622.922) rotate(0 -87.52644105741331 -23.423348368834695)"><text x="14.5556640625" y="0" font-family="Virgil, Segoe UI Emoji" font-size="20px" fill="black" text-anchor="middle" style="white-space: pre;" direction="ltr" dominant-baseline="text-before-edge">Yes</text></g><g transform="translate(1708.3113203125 3059.258) rotate(0 34.567512923907884 13.305616827271706)"><text x="12.2216796875" y="0" font-family="Virgil, Segoe UI Emoji" font-size="20px" fill="black" text-anchor="middle" style="white-space: pre;" direction="ltr" dominant-baseline="text-before-edge">No</text></g><g transform="translate(2033.1293203125 3301.758) rotate(0 12.305696177659684 12.149996491940556)"><text x="12.2216796875" y="0" font-family="Virgil, Segoe UI Emoji" font-size="20px" fill="black" text-anchor="middle" style="white-space: pre;" direction="ltr" dominant-baseline="text-before-edge">No</text></g><g transform="translate(2238.1353359375 3301.758) rotate(0 -41.81081716828396 3.247008815515983)"><text x="14.5556640625" y="0" font-family="Virgil, Segoe UI Emoji" font-size="20px" fill="black" text-anchor="middle" style="white-space: pre;" direction="ltr" dominant-baseline="text-before-edge">Yes</text></g><g transform="translate(2017.1903359375 3059.258) rotate(0 -92.21369470536706 -27.267581754904086)"><text x="14.5556640625" y="0" font-family="Virgil, Segoe UI Emoji" font-size="20px" fill="black" text-anchor="middle" style="white-space: pre;" direction="ltr" dominant-baseline="text-before-edge">Yes</text></g></svg>